<svg width="1850" height="2050" xmlns="http://www.w3.org/2000/svg">
<g transform="translate(50, 50)">
<rect id="seat-1" class="seat yellow-seat" x="100" y="50" width="35" height="35" rx="5"/>
<rect id="seat-2" class="seat yellow-seat" x="150" y="50" width="35" height="35" rx="5"/>
<rect id="seat-3" class="seat yellow-seat" x="200" y="50" width="35" height="35" rx="5"/>
<rect id="seat-4" class="seat yellow-seat" x="250" y="50" width="35" height="35" rx="5"/>
<rect id="seat-5" class="seat yellow-seat" x="300" y="50" width="35" height="35" rx="5"/>
<rect id="seat-6" class="seat yellow-seat" x="350" y="50" width="35" height="35" rx="5"/>
<rect id="seat-7" class="seat yellow-seat" x="400" y="50" width="35" height="35" rx="5"/>
<rect id="seat-8" class="seat yellow-seat" x="450" y="50" width="35" height="35" rx="5"/>
<rect id="seat-9" class="seat yellow-seat" x="500" y="50" width="35" height="35" rx="5"/>
<rect id="seat-10" class="seat yellow-seat" x="550" y="50" width="35" height="35" rx="5"/>
<rect id="seat-11" class="seat yellow-seat" x="600" y="50" width="35" height="35" rx="5"/>
<rect id="seat-12" class="seat yellow-seat" x="50" y="200" width="35" height="35" rx="5"/>
<rect id="seat-13" class="seat yellow-seat" x="50" y="250" width="35" height="35" rx="5"/>
<rect id="seat-14" class="seat yellow-seat" x="50" y="300" width="35" height="35" rx="5"/>
<rect id="seat-15" class="seat yellow-seat" x="50" y="400" width="35" height="35" rx="5"/>
<rect id="seat-16" class="seat yellow-seat" x="50" y="450" width="35" height="35" rx="5"/>
<rect id="seat-17" class="seat yellow-seat" x="50" y="500" width="35" height="35" rx="5"/>
<rect id="seat-18" class="seat yellow-seat" x="50" y="550" width="35" height="35" rx="5"/>
<rect id="seat-19" class="seat yellow-seat" x="50" y="650" width="35" height="35" rx="5"/>
<rect id="seat-20" class="seat yellow-seat" x="50" y="700" width="35" height="35" rx="5"/>
<rect id="seat-21" class="seat blue-seat" x="50" y="800" width="35" height="35" rx="5"/>
<rect id="seat-22" class="seat blue-seat" x="100" y="800" width="35" height="35" rx="5"/>
<rect id="seat-23" class="seat blue-seat" x="150" y="800" width="35" height="35" rx="5"/>
<rect id="seat-24" class="seat blue-seat" x="200" y="800" width="35" height="35" rx="5"/>
<rect id="seat-25" class="seat blue-seat" x="250" y="800" width="35" height="35" rx="5"/>
<rect id="seat-26" class="seat blue-seat" x="300" y="800" width="35" height="35" rx="5"/>
<rect id="seat-27" class="seat blue-seat" x="400" y="800" width="35" height="35" rx="5"/>
<rect id="seat-28" class="seat blue-seat" x="450" y="800" width="35" height="35" rx="5"/>
<rect id="seat-29" class="seat blue-seat" x="500" y="800" width="35" height="35" rx="5"/>
<rect id="seat-30" class="seat blue-seat" x="550" y="800" width="35" height="35" rx="5"/>
<rect id="seat-31" class="seat blue-seat" x="550" y="850" width="35" height="35" rx="5"/>
<rect id="seat-32" class="seat blue-seat" x="500" y="850" width="35" height="35" rx="5"/>
<rect id="seat-33" class="seat blue-seat" x="450" y="850" width="35" height="35" rx="5"/>
<rect id="seat-34" class="seat blue-seat" x="400" y="850" width="35" height="35" rx="5"/>
<rect id="seat-35" class="seat blue-seat" x="300" y="850" width="35" height="35" rx="5"/>
<rect id="seat-36" class="seat blue-seat" x="250" y="850" width="35" height="35" rx="5"/>
<rect id="seat-37" class="seat blue-seat" x="200" y="850" width="35" height="35" rx="5"/>
<rect id="seat-38" class="seat blue-seat" x="150" y="850" width="35" height="35" rx="5"/>
<rect id="seat-39" class="seat blue-seat" x="100" y="850" width="35" height="35" rx="5"/>
<rect id="seat-40" class="seat blue-seat" x="50" y="850" width="35" height="35" rx="5"/>
<rect id="seat-41" class="seat blue-seat" x="150" y="700" width="35" height="35" rx="5"/>
<rect id="seat-42" class="seat blue-seat" x="200" y="700" width="35" height="35" rx="5"/>
<rect id="seat-43" class="seat blue-seat" x="250" y="700" width="35" height="35" rx="5"/>
<rect id="seat-44" class="seat blue-seat" x="300" y="700" width="35" height="35" rx="5"/>
<rect id="seat-45" class="seat blue-seat" x="400" y="700" width="35" height="35" rx="5"/>
<rect id="seat-46" class="seat blue-seat" x="450" y="700" width="35" height="35" rx="5"/>
<rect id="seat-47" class="seat blue-seat" x="500" y="700" width="35" height="35" rx="5"/>
<rect id="seat-48" class="seat blue-seat" x="550" y="700" width="35" height="35" rx="5"/>
<rect id="seat-49" class="seat blue-seat" x="550" y="650" width="35" height="35" rx="5"/>
<rect id="seat-50" class="seat blue-seat" x="500" y="650" width="35" height="35" rx="5"/>
<rect id="seat-51" class="seat blue-seat" x="450" y="650" width="35" height="35" rx="5"/>
<rect id="seat-52" class="seat blue-seat" x="400" y="650" width="35" height="35" rx="5"/>
<rect id="seat-53" class="seat blue-seat" x="300" y="650" width="35" height="35" rx="5"/>
<rect id="seat-54" class="seat blue-seat" x="250" y="650" width="35" height="35" rx="5"/>
<rect id="seat-55" class="seat blue-seat" x="200" y="650" width="35" height="35" rx="5"/>
<rect id="seat-56" class="seat blue-seat" x="150" y="650" width="35" height="35" rx="5"/>
<rect id="seat-57" class="seat blue-seat" x="150" y="550" width="35" height="35" rx="5"/>
<rect id="seat-58" class="seat blue-seat" x="200" y="550" width="35" height="35" rx="5"/>
<rect id="seat-59" class="seat blue-seat" x="300" y="550" width="35" height="35" rx="5"/>
<rect id="seat-60" class="seat blue-seat" x="350" y="550" width="35" height="35" rx="5"/>
<rect id="seat-61" class="seat blue-seat" x="450" y="550" width="35" height="35" rx="5"/>
<rect id="seat-62" class="seat blue-seat" x="500" y="550" width="35" height="35" rx="5"/>
<rect id="seat-63" class="seat blue-seat" x="500" y="500" width="35" height="35" rx="5"/>
<rect id="seat-64" class="seat blue-seat" x="450" y="500" width="35" height="35" rx="5"/>
<rect id="seat-65" class="seat blue-seat" x="350" y="500" width="35" height="35" rx="5"/>
<rect id="seat-66" class="seat blue-seat" x="300" y="500" width="35" height="35" rx="5"/>
<rect id="seat-67" class="seat blue-seat" x="200" y="500" width="35" height="35" rx="5"/>
<rect id="seat-68" class="seat blue-seat" x="150" y="500" width="35" height="35" rx="5"/>
<rect id="seat-69" class="seat blue-seat" x="150" y="450" width="35" height="35" rx="5"/>
<rect id="seat-70" class="seat blue-seat" x="200" y="450" width="35" height="35" rx="5"/>
<rect id="seat-71" class="seat blue-seat" x="300" y="450" width="35" height="35" rx="5"/>
<rect id="seat-72" class="seat blue-seat" x="350" y="450" width="35" height="35" rx="5"/>
<rect id="seat-73" class="seat blue-seat" x="450" y="450" width="35" height="35" rx="5"/>
<rect id="seat-74" class="seat blue-seat" x="500" y="450" width="35" height="35" rx="5"/>
<rect id="seat-75" class="seat blue-seat" x="500" y="400" width="35" height="35" rx="5"/>
<rect id="seat-76" class="seat blue-seat" x="450" y="400" width="35" height="35" rx="5"/>
<rect id="seat-77" class="seat blue-seat" x="350" y="400" width="35" height="35" rx="5"/>
<rect id="seat-78" class="seat blue-seat" x="300" y="400" width="35" height="35" rx="5"/>
<rect id="seat-79" class="seat blue-seat" x="200" y="400" width="35" height="35" rx="5"/>
<rect id="seat-80" class="seat blue-seat" x="150" y="400" width="35" height="35" rx="5"/>
<rect id="seat-81" class="seat blue-seat" x="150" y="300" width="35" height="35" rx="5"/>
<rect id="seat-82" class="seat blue-seat" x="200" y="300" width="35" height="35" rx="5"/>
<rect id="seat-83" class="seat blue-seat" x="300" y="300" width="35" height="35" rx="5"/>
<rect id="seat-84" class="seat blue-seat" x="350" y="300" width="35" height="35" rx="5"/>
<rect id="seat-85" class="seat blue-seat" x="450" y="300" width="35" height="35" rx="5"/>
<rect id="seat-86" class="seat blue-seat" x="500" y="300" width="35" height="35" rx="5"/>
<rect id="seat-87" class="seat blue-seat" x="500" y="250" width="35" height="35" rx="5"/>
<rect id="seat-88" class="seat blue-seat" x="450" y="250" width="35" height="35" rx="5"/>
<rect id="seat-89" class="seat blue-seat" x="350" y="250" width="35" height="35" rx="5"/>
<rect id="seat-90" class="seat blue-seat" x="300" y="250" width="35" height="35" rx="5"/>
<rect id="seat-91" class="seat blue-seat" x="200" y="250" width="35" height="35" rx="5"/>
<rect id="seat-92" class="seat blue-seat" x="150" y="250" width="35" height="35" rx="5"/>
<rect id="seat-93" class="seat blue-seat" x="150" y="200" width="35" height="35" rx="5"/>
<rect id="seat-94" class="seat blue-seat" x="200" y="200" width="35" height="35" rx="5"/>
<rect id="seat-95" class="seat blue-seat" x="300" y="200" width="35" height="35" rx="5"/>
<rect id="seat-96" class="seat blue-seat" x="350" y="200" width="35" height="35" rx="5"/>
<rect id="seat-97" class="seat blue-seat" x="450" y="200" width="35" height="35" rx="5"/>
<rect id="seat-98" class="seat blue-seat" x="500" y="200" width="35" height="35" rx="5"/>
<rect id="seat-99" class="seat blue-seat" x="500" y="150" width="35" height="35" rx="5"/>
<rect id="seat-100" class="seat blue-seat" x="450" y="150" width="35" height="35" rx="5"/>
<rect id="seat-101" class="seat blue-seat" x="350" y="150" width="35" height="35" rx="5"/>
<rect id="seat-102" class="seat blue-seat" x="300" y="150" width="35" height="35" rx="5"/>
<rect id="seat-103" class="seat blue-seat" x="200" y="150" width="35" height="35" rx="5"/>
<rect id="seat-104" class="seat blue-seat" x="150" y="150" width="35" height="35" rx="5"/>
<rect id="seat-105" class="seat blue-seat" x="650" y="150" width="35" height="35" rx="5"/>
<rect id="seat-106" class="seat blue-seat" x="650" y="200" width="35" height="35" rx="5"/>
<rect id="seat-107" class="seat blue-seat" x="650" y="250" width="35" height="35" rx="5"/>
<rect id="seat-108" class="seat blue-seat" x="650" y="300" width="35" height="35" rx="5"/>
<rect id="seat-109" class="seat blue-seat" x="650" y="350" width="35" height="35" rx="5"/>
<rect id="seat-110" class="seat blue-seat" x="650" y="400" width="35" height="35" rx="5"/>
<rect id="seat-111" class="seat blue-seat" x="700" y="400" width="35" height="35" rx="5"/>
<rect id="seat-112" class="seat blue-seat" x="700" y="350" width="35" height="35" rx="5"/>
<rect id="seat-113" class="seat blue-seat" x="700" y="300" width="35" height="35" rx="5"/>
<rect id="seat-114" class="seat blue-seat" x="700" y="250" width="35" height="35" rx="5"/>
<rect id="seat-115" class="seat blue-seat" x="700" y="200" width="35" height="35" rx="5"/>
<rect id="seat-116" class="seat blue-seat" x="700" y="150" width="35" height="35" rx="5"/>
<rect id="seat-117" class="seat blue-seat" x="800" y="150" width="35" height="35" rx="5"/>
<rect id="seat-118" class="seat blue-seat" x="800" y="200" width="35" height="35" rx="5"/>
<rect id="seat-119" class="seat blue-seat" x="800" y="250" width="35" height="35" rx="5"/>
<rect id="seat-120" class="seat blue-seat" x="800" y="300" width="35" height="35" rx="5"/>
<rect id="seat-121" class="seat blue-seat" x="800" y="350" width="35" height="35" rx="5"/>
<rect id="seat-122" class="seat blue-seat" x="800" y="400" width="35" height="35" rx="5"/>
<rect id="seat-123" class="seat blue-seat" x="800" y="450" width="35" height="35" rx="5"/>
<rect id="seat-124" class="seat blue-seat" x="800" y="500" width="35" height="35" rx="5"/>
<rect id="seat-125" class="seat blue-seat" x="850" y="500" width="35" height="35" rx="5"/>
<rect id="seat-126" class="seat blue-seat" x="850" y="450" width="35" height="35" rx="5"/>
<rect id="seat-127" class="seat blue-seat" x="850" y="400" width="35" height="35" rx="5"/>
<rect id="seat-128" class="seat blue-seat" x="850" y="350" width="35" height="35" rx="5"/>
<rect id="seat-129" class="seat blue-seat" x="850" y="300" width="35" height="35" rx="5"/>
<rect id="seat-130" class="seat blue-seat" x="850" y="250" width="35" height="35" rx="5"/>
<rect id="seat-131" class="seat blue-seat" x="850" y="200" width="35" height="35" rx="5"/>
<rect id="seat-132" class="seat blue-seat" x="850" y="150" width="35" height="35" rx="5"/>
<rect id="seat-133" class="seat blue-seat" x="950" y="150" width="35" height="35" rx="5"/>
<rect id="seat-134" class="seat blue-seat" x="950" y="200" width="35" height="35" rx="5"/>
<rect id="seat-135" class="seat blue-seat" x="950" y="250" width="35" height="35" rx="5"/>
<rect id="seat-136" class="seat blue-seat" x="950" y="300" width="35" height="35" rx="5"/>
<rect id="seat-137" class="seat blue-seat" x="950" y="350" width="35" height="35" rx="5"/>
<rect id="seat-138" class="seat blue-seat" x="950" y="400" width="35" height="35" rx="5"/>
<rect id="seat-139" class="seat blue-seat" x="950" y="450" width="35" height="35" rx="5"/>
<rect id="seat-140" class="seat blue-seat" x="950" y="500" width="35" height="35" rx="5"/>
<rect id="seat-141" class="seat blue-seat" x="1000" y="500" width="35" height="35" rx="5"/>
<rect id="seat-142" class="seat blue-seat" x="1000" y="450" width="35" height="35" rx="5"/>
<rect id="seat-143" class="seat blue-seat" x="1000" y="400" width="35" height="35" rx="5"/>
<rect id="seat-144" class="seat blue-seat" x="1000" y="350" width="35" height="35" rx="5"/>
<rect id="seat-145" class="seat blue-seat" x="1000" y="300" width="35" height="35" rx="5"/>
<rect id="seat-146" class="seat blue-seat" x="1000" y="250" width="35" height="35" rx="5"/>
<rect id="seat-147" class="seat blue-seat" x="1000" y="200" width="35" height="35" rx="5"/>
<rect id="seat-148" class="seat blue-seat" x="1000" y="150" width="35" height="35" rx="5"/>
<rect id="seat-149" class="seat blue-seat" x="1100" y="150" width="35" height="35" rx="5"/>
<rect id="seat-150" class="seat blue-seat" x="1100" y="200" width="35" height="35" rx="5"/>
<rect id="seat-151" class="seat blue-seat" x="1100" y="250" width="35" height="35" rx="5"/>
<rect id="seat-152" class="seat blue-seat" x="1100" y="300" width="35" height="35" rx="5"/>
<rect id="seat-153" class="seat blue-seat" x="1100" y="350" width="35" height="35" rx="5"/>
<rect id="seat-154" class="seat blue-seat" x="1100" y="400" width="35" height="35" rx="5"/>
<rect id="seat-155" class="seat blue-seat" x="1100" y="450" width="35" height="35" rx="5"/>
<rect id="seat-156" class="seat blue-seat" x="1100" y="500" width="35" height="35" rx="5"/>
<rect id="seat-157" class="seat blue-seat" x="1150" y="500" width="35" height="35" rx="5"/>
<rect id="seat-158" class="seat blue-seat" x="1150" y="450" width="35" height="35" rx="5"/>
<rect id="seat-159" class="seat blue-seat" x="1150" y="400" width="35" height="35" rx="5"/>
<rect id="seat-160" class="seat blue-seat" x="1150" y="350" width="35" height="35" rx="5"/>
<rect id="seat-161" class="seat blue-seat" x="1150" y="300" width="35" height="35" rx="5"/>
<rect id="seat-162" class="seat blue-seat" x="1150" y="250" width="35" height="35" rx="5"/>
<rect id="seat-163" class="seat blue-seat" x="1150" y="200" width="35" height="35" rx="5"/>
<rect id="seat-164" class="seat blue-seat" x="1150" y="150" width="35" height="35" rx="5"/>
<rect id="seat-165" class="seat blue-seat" x="1250" y="150" width="35" height="35" rx="5"/>
<rect id="seat-166" class="seat blue-seat" x="1250" y="200" width="35" height="35" rx="5"/>
<rect id="seat-167" class="seat blue-seat" x="1250" y="250" width="35" height="35" rx="5"/>
<rect id="seat-168" class="seat blue-seat" x="1250" y="300" width="35" height="35" rx="5"/>
<rect id="seat-169" class="seat blue-seat" x="1250" y="350" width="35" height="35" rx="5"/>
<rect id="seat-170" class="seat blue-seat" x="1250" y="400" width="35" height="35" rx="5"/>
<rect id="seat-171" class="seat blue-seat" x="1300" y="400" width="35" height="35" rx="5"/>
<rect id="seat-172" class="seat blue-seat" x="1300" y="350" width="35" height="35" rx="5"/>
<rect id="seat-173" class="seat blue-seat" x="1300" y="300" width="35" height="35" rx="5"/>
<rect id="seat-174" class="seat blue-seat" x="1300" y="250" width="35" height="35" rx="5"/>
<rect id="seat-175" class="seat blue-seat" x="1300" y="200" width="35" height="35" rx="5"/>
<rect id="seat-176" class="seat blue-seat" x="1300" y="150" width="35" height="35" rx="5"/>
<rect id="seat-177" class="seat blue-seat" x="1400" y="150" width="35" height="35" rx="5"/>
<rect id="seat-178" class="seat blue-seat" x="1400" y="200" width="35" height="35" rx="5"/>
<rect id="seat-179" class="seat blue-seat" x="1400" y="250" width="35" height="35" rx="5"/>
<rect id="seat-180" class="seat blue-seat" x="1400" y="300" width="35" height="35" rx="5"/>
<rect id="seat-181" class="seat blue-seat" x="1400" y="350" width="35" height="35" rx="5"/>
<rect id="seat-182" class="seat blue-seat" x="1400" y="400" width="35" height="35" rx="5"/>
<rect id="seat-183" class="seat blue-seat" x="1400" y="450" width="35" height="35" rx="5"/>
<rect id="seat-184" class="seat blue-seat" x="1400" y="500" width="35" height="35" rx="5"/>
<rect id="seat-185" class="seat blue-seat" x="1450" y="500" width="35" height="35" rx="5"/>
<rect id="seat-186" class="seat blue-seat" x="1450" y="450" width="35" height="35" rx="5"/>
<rect id="seat-187" class="seat blue-seat" x="1450" y="400" width="35" height="35" rx="5"/>
<rect id="seat-188" class="seat blue-seat" x="1450" y="350" width="35" height="35" rx="5"/>
<rect id="seat-189" class="seat blue-seat" x="1450" y="300" width="35" height="35" rx="5"/>
<rect id="seat-190" class="seat blue-seat" x="1450" y="250" width="35" height="35" rx="5"/>
<rect id="seat-191" class="seat blue-seat" x="1450" y="200" width="35" height="35" rx="5"/>
<rect id="seat-192" class="seat blue-seat" x="1450" y="150" width="35" height="35" rx="5"/>
<rect id="seat-193" class="seat blue-seat" x="1600" y="150" width="35" height="35" rx="5"/>
<rect id="seat-194" class="seat blue-seat" x="1650" y="150" width="35" height="35" rx="5"/>
<rect id="seat-195" class="seat blue-seat" x="1700" y="150" width="35" height="35" rx="5"/>
<rect id="seat-196" class="seat blue-seat" x="1750" y="150" width="35" height="35" rx="5"/>
<rect id="seat-197" class="seat blue-seat" x="1750" y="200" width="35" height="35" rx="5"/>
<rect id="seat-198" class="seat blue-seat" x="1700" y="200" width="35" height="35" rx="5"/>
<rect id="seat-199" class="seat blue-seat" x="1650" y="200" width="35" height="35" rx="5"/>
<rect id="seat-200" class="seat blue-seat" x="1600" y="200" width="35" height="35" rx="5"/>
<rect id="seat-201" class="seat blue-seat" x="1600" y="300" width="35" height="35" rx="5"/>
<rect id="seat-202" class="seat blue-seat" x="1650" y="300" width="35" height="35" rx="5"/>
<rect id="seat-203" class="seat blue-seat" x="1700" y="300" width="35" height="35" rx="5"/>
<rect id="seat-204" class="seat blue-seat" x="1750" y="300" width="35" height="35" rx="5"/>
<rect id="seat-205" class="seat blue-seat" x="1750" y="350" width="35" height="35" rx="5"/>
<rect id="seat-206" class="seat blue-seat" x="1700" y="350" width="35" height="35" rx="5"/>
<rect id="seat-207" class="seat blue-seat" x="1650" y="350" width="35" height="35" rx="5"/>
<rect id="seat-208" class="seat blue-seat" x="1600" y="350" width="35" height="35" rx="5"/>
<rect id="seat-209" class="seat blue-seat" x="1600" y="450" width="35" height="35" rx="5"/>
<rect id="seat-210" class="seat blue-seat" x="1650" y="450" width="35" height="35" rx="5"/>
<rect id="seat-211" class="seat blue-seat" x="1700" y="450" width="35" height="35" rx="5"/>
<rect id="seat-212" class="seat blue-seat" x="1750" y="450" width="35" height="35" rx="5"/>
<rect id="seat-213" class="seat blue-seat" x="1750" y="500" width="35" height="35" rx="5"/>
<rect id="seat-214" class="seat blue-seat" x="1700" y="500" width="35" height="35" rx="5"/>
<rect id="seat-215" class="seat blue-seat" x="1650" y="500" width="35" height="35" rx="5"/>
<rect id="seat-216" class="seat blue-seat" x="1600" y="500" width="35" height="35" rx="5"/>
<rect id="seat-217" class="seat blue-seat" x="1600" y="600" width="35" height="35" rx="5"/>
<rect id="seat-218" class="seat blue-seat" x="1650" y="600" width="35" height="35" rx="5"/>
<rect id="seat-219" class="seat blue-seat" x="1700" y="600" width="35" height="35" rx="5"/>
<rect id="seat-220" class="seat blue-seat" x="1750" y="600" width="35" height="35" rx="5"/>
<rect id="seat-221" class="seat blue-seat" x="1750" y="650" width="35" height="35" rx="5"/>
<rect id="seat-222" class="seat blue-seat" x="1700" y="650" width="35" height="35" rx="5"/>
<rect id="seat-223" class="seat blue-seat" x="1650" y="650" width="35" height="35" rx="5"/>
<rect id="seat-224" class="seat blue-seat" x="1600" y="650" width="35" height="35" rx="5"/>
<rect id="seat-225" class="seat blue-seat" x="1400" y="750" width="35" height="35" rx="5"/>
<rect id="seat-226" class="seat blue-seat" x="1450" y="750" width="35" height="35" rx="5"/>
<rect id="seat-227" class="seat blue-seat" x="1600" y="750" width="35" height="35" rx="5"/>
<rect id="seat-228" class="seat blue-seat" x="1650" y="750" width="35" height="35" rx="5"/>
<rect id="seat-229" class="seat blue-seat" x="1700" y="750" width="35" height="35" rx="5"/>
<rect id="seat-230" class="seat blue-seat" x="1750" y="750" width="35" height="35" rx="5"/>
<rect id="seat-231" class="seat blue-seat" x="1750" y="800" width="35" height="35" rx="5"/>
<rect id="seat-232" class="seat blue-seat" x="1700" y="800" width="35" height="35" rx="5"/>
<rect id="seat-233" class="seat blue-seat" x="1650" y="800" width="35" height="35" rx="5"/>
<rect id="seat-234" class="seat blue-seat" x="1600" y="800" width="35" height="35" rx="5"/>
<rect id="seat-235" class="seat blue-seat" x="1450" y="800" width="35" height="35" rx="5"/>
<rect id="seat-236" class="seat blue-seat" x="1400" y="800" width="35" height="35" rx="5"/>
<rect id="seat-237" class="seat blue-seat" x="1300" y="900" width="35" height="35" rx="5"/>
<rect id="seat-238" class="seat blue-seat" x="1350" y="900" width="35" height="35" rx="5"/>
<rect id="seat-239" class="seat blue-seat" x="1400" y="900" width="35" height="35" rx="5"/>
<rect id="seat-240" class="seat blue-seat" x="1450" y="900" width="35" height="35" rx="5"/>
<rect id="seat-241" class="seat blue-seat" x="1600" y="900" width="35" height="35" rx="5"/>
<rect id="seat-242" class="seat blue-seat" x="1650" y="900" width="35" height="35" rx="5"/>
<rect id="seat-243" class="seat blue-seat" x="1700" y="900" width="35" height="35" rx="5"/>
<rect id="seat-244" class="seat blue-seat" x="1750" y="900" width="35" height="35" rx="5"/>
<rect id="seat-245" class="seat blue-seat" x="1750" y="950" width="35" height="35" rx="5"/>
<rect id="seat-246" class="seat blue-seat" x="1700" y="950" width="35" height="35" rx="5"/>
<rect id="seat-247" class="seat blue-seat" x="1650" y="950" width="35" height="35" rx="5"/>
<rect id="seat-248" class="seat blue-seat" x="1600" y="950" width="35" height="35" rx="5"/>
<rect id="seat-249" class="seat blue-seat" x="1450" y="950" width="35" height="35" rx="5"/>
<rect id="seat-250" class="seat blue-seat" x="1400" y="950" width="35" height="35" rx="5"/>
<rect id="seat-251" class="seat blue-seat" x="1350" y="950" width="35" height="35" rx="5"/>
<rect id="seat-252" class="seat blue-seat" x="1300" y="950" width="35" height="35" rx="5"/>
<rect id="seat-253" class="seat blue-seat" x="1300" y="1050" width="35" height="35" rx="5"/>
<rect id="seat-254" class="seat blue-seat" x="1350" y="1050" width="35" height="35" rx="5"/>
<rect id="seat-255" class="seat blue-seat" x="1400" y="1050" width="35" height="35" rx="5"/>
<rect id="seat-256" class="seat blue-seat" x="1450" y="1050" width="35" height="35" rx="5"/>
<rect id="seat-257" class="seat blue-seat" x="1600" y="1050" width="35" height="35" rx="5"/>
<rect id="seat-258" class="seat blue-seat" x="1650" y="1050" width="35" height="35" rx="5"/>
<rect id="seat-259" class="seat blue-seat" x="1700" y="1050" width="35" height="35" rx="5"/>
<rect id="seat-260" class="seat blue-seat" x="1750" y="1050" width="35" height="35" rx="5"/>
<rect id="seat-261" class="seat blue-seat" x="1750" y="1100" width="35" height="35" rx="5"/>
<rect id="seat-262" class="seat blue-seat" x="1700" y="1100" width="35" height="35" rx="5"/>
<rect id="seat-263" class="seat blue-seat" x="1650" y="1100" width="35" height="35" rx="5"/>
<rect id="seat-264" class="seat blue-seat" x="1600" y="1100" width="35" height="35" rx="5"/>
<rect id="seat-265" class="seat blue-seat" x="1450" y="1100" width="35" height="35" rx="5"/>
<rect id="seat-266" class="seat blue-seat" x="1400" y="1100" width="35" height="35" rx="5"/>
<rect id="seat-267" class="seat blue-seat" x="1350" y="1100" width="35" height="35" rx="5"/>
<rect id="seat-268" class="seat blue-seat" x="1300" y="1100" width="35" height="35" rx="5"/>
<rect id="seat-269" class="seat blue-seat" x="1200" y="1200" width="35" height="35" rx="5"/>
<rect id="seat-270" class="seat blue-seat" x="1250" y="1200" width="35" height="35" rx="5"/>
<rect id="seat-271" class="seat blue-seat" x="1300" y="1200" width="35" height="35" rx="5"/>
<rect id="seat-272" class="seat blue-seat" x="1350" y="1200" width="35" height="35" rx="5"/>
<rect id="seat-273" class="seat blue-seat" x="1400" y="1200" width="35" height="35" rx="5"/>
<rect id="seat-274" class="seat blue-seat" x="1450" y="1200" width="35" height="35" rx="5"/>
<rect id="seat-275" class="seat blue-seat" x="1600" y="1200" width="35" height="35" rx="5"/>
<rect id="seat-276" class="seat blue-seat" x="1650" y="1200" width="35" height="35" rx="5"/>
<rect id="seat-277" class="seat blue-seat" x="1700" y="1200" width="35" height="35" rx="5"/>
<rect id="seat-278" class="seat blue-seat" x="1750" y="1200" width="35" height="35" rx="5"/>
<rect id="seat-279" class="seat blue-seat" x="1750" y="1250" width="35" height="35" rx="5"/>
<rect id="seat-280" class="seat blue-seat" x="1700" y="1250" width="35" height="35" rx="5"/>
<rect id="seat-281" class="seat blue-seat" x="1650" y="1250" width="35" height="35" rx="5"/>
<rect id="seat-282" class="seat blue-seat" x="1600" y="1250" width="35" height="35" rx="5"/>
<rect id="seat-283" class="seat blue-seat" x="1450" y="1250" width="35" height="35" rx="5"/>
<rect id="seat-284" class="seat blue-seat" x="1400" y="1250" width="35" height="35" rx="5"/>
<rect id="seat-285" class="seat blue-seat" x="1350" y="1250" width="35" height="35" rx="5"/>
<rect id="seat-286" class="seat blue-seat" x="1300" y="1250" width="35" height="35" rx="5"/>
<rect id="seat-287" class="seat blue-seat" x="1250" y="1250" width="35" height="35" rx="5"/>
<rect id="seat-288" class="seat blue-seat" x="1200" y="1250" width="35" height="35" rx="5"/>
<rect id="seat-289" class="seat blue-seat" x="1550" y="1450" width="35" height="35" rx="5"/>
<rect id="seat-290" class="seat blue-seat" x="1600" y="1450" width="35" height="35" rx="5"/>
<rect id="seat-291" class="seat blue-seat" x="1700" y="1450" width="35" height="35" rx="5"/>
<rect id="seat-292" class="seat blue-seat" x="1750" y="1450" width="35" height="35" rx="5"/>
<rect id="seat-293" class="seat blue-seat" x="1750" y="1500" width="35" height="35" rx="5"/>
<rect id="seat-294" class="seat blue-seat" x="1700" y="1500" width="35" height="35" rx="5"/>
<rect id="seat-295" class="seat blue-seat" x="1600" y="1500" width="35" height="35" rx="5"/>
<rect id="seat-296" class="seat blue-seat" x="1550" y="1500" width="35" height="35" rx="5"/>
<rect id="seat-297" class="seat blue-seat" x="1550" y="1600" width="35" height="35" rx="5"/>
<rect id="seat-298" class="seat blue-seat" x="1600" y="1600" width="35" height="35" rx="5"/>
<rect id="seat-299" class="seat blue-seat" x="1700" y="1600" width="35" height="35" rx="5"/>
<rect id="seat-300" class="seat blue-seat" x="1750" y="1600" width="35" height="35" rx="5"/>
<rect id="seat-301" class="seat blue-seat" x="1750" y="1650" width="35" height="35" rx="5"/>
<rect id="seat-302" class="seat blue-seat" x="1700" y="1650" width="35" height="35" rx="5"/>
<rect id="seat-303" class="seat blue-seat" x="1600" y="1650" width="35" height="35" rx="5"/>
<rect id="seat-304" class="seat blue-seat" x="1550" y="1650" width="35" height="35" rx="5"/>
<rect id="seat-305" class="seat blue-seat" x="1550" y="1750" width="35" height="35" rx="5"/>
<rect id="seat-306" class="seat blue-seat" x="1600" y="1750" width="35" height="35" rx="5"/>
<rect id="seat-307" class="seat blue-seat" x="1700" y="1750" width="35" height="35" rx="5"/>
<rect id="seat-308" class="seat blue-seat" x="1750" y="1750" width="35" height="35" rx="5"/>
<rect id="seat-309" class="seat blue-seat" x="1750" y="1800" width="35" height="35" rx="5"/>
<rect id="seat-310" class="seat blue-seat" x="1700" y="1800" width="35" height="35" rx="5"/>
<rect id="seat-311" class="seat blue-seat" x="1600" y="1800" width="35" height="35" rx="5"/>
<rect id="seat-312" class="seat blue-seat" x="1550" y="1800" width="35" height="35" rx="5"/>
<rect id="seat-313" class="seat blue-seat" x="1550" y="1900" width="35" height="35" rx="5"/>
<rect id="seat-314" class="seat blue-seat" x="1600" y="1900" width="35" height="35" rx="5"/>
<rect id="seat-315" class="seat blue-seat" x="1700" y="1900" width="35" height="35" rx="5"/>
<rect id="seat-316" class="seat blue-seat" x="1750" y="1900" width="35" height="35" rx="5"/>
<rect id="seat-317" class="seat blue-seat" x="1750" y="1950" width="35" height="35" rx="5"/>
<rect id="seat-318" class="seat blue-seat" x="1700" y="1950" width="35" height="35" rx="5"/>
<rect id="seat-319" class="seat blue-seat" x="1600" y="1950" width="35" height="35" rx="5"/>
<rect id="seat-320" class="seat blue-seat" x="1550" y="1950" width="35" height="35" rx="5"/>
</g>
</svg>